<?xml version="1.0" encoding="UTF-8" standalone="no"?>
<svg
   width="325"
   height="325"
   viewBox="0 0 85.989583 85.989583"
   version="1.1"
   id="svg1"
   xml:space="preserve"
   sodipodi:docname="favicon.svg"
   inkscape:version="1.4.3 (fcd0343856, 2026-01-01)"
   xmlns:inkscape="http://www.inkscape.org/namespaces/inkscape"
   xmlns:sodipodi="http://sodipodi.sourceforge.net/DTD/sodipodi-0.dtd"
   xmlns="http://www.w3.org/2000/svg"
   xmlns:svg="http://www.w3.org/2000/svg"><sodipodi:namedview
   id="namedview1"
   pagecolor="#ffffff"
   bordercolor="#000000"
   borderopacity="0.25"
   inkscape:showpageshadow="2"
   inkscape:pageopacity="0.0"
   inkscape:pagecheckerboard="0"
   inkscape:deskcolor="#d1d1d1"
   inkscape:document-units="mm"
   inkscape:zoom="3.4584615"
   inkscape:cx="162.35543"
   inkscape:cy="162.5"
   inkscape:window-width="2502"
   inkscape:window-height="1371"
   inkscape:window-x="0"
   inkscape:window-y="0"
   inkscape:window-maximized="1"
   inkscape:current-layer="layer1" />
  <defs
   id="defs1"><inkscape:path-effect
     effect="fillet_chamfer"
     id="path-effect1"
     is_visible="true"
     lpeversion="1"
     nodesatellites_param="F,0,1,1,0,2.2428081,0,1 @ F,0,1,1,0,2.2428081,0,1 @ F,0,1,1,0,2.2428081,0,1 @ F,0,1,1,0,2.2428081,0,1 @ F,0,0,1,0,2.2428081,0,1 @ F,0,1,1,0,2.2428081,0,1"
     radius="0"
     unit="px"
     method="auto"
     mode="F"
     chamfer_steps="1"
     flexible="false"
     use_knot_distance="true"
     apply_no_radius="true"
     apply_with_radius="true"
     only_selected="false"
     hide_knots="false" /></defs>
  <path
   style="fill:#000000;stroke-width:1.00012"
   d="m 44.712776,1.2910459 33.2278,18.2856191 a 3.79423,3.79423 59.412233 0 1 1.964926,3.324128 v 40.185963 a 3.8224271,3.8224271 120.40227 0 1 -1.957883,3.336829 L 44.705733,84.998392 a 4.0472571,4.0472571 179.79779 0 1 -3.92344,0.01385 L 7.3135629,66.619465 A 3.7917047,3.7917047 59.39552 0 1 5.3480062,63.296483 V 23.005655 A 3.7917046,3.7917046 120.60448 0 1 7.3135629,19.682673 L 40.782293,1.2898994 a 4.0783456,4.0783456 0.01671382 0 1 3.930483,0.00115 z"
   id="path1"
   sodipodi:nodetypes="ccccccc"
   inkscape:path-effect="#path-effect1"
   inkscape:original-d="M 42.74785,0.20972573 79.905502,20.657985 V 65.329564 L 42.74785,86.092413 5.3480062,65.539291 V 20.762847 Z" /><g
   id="layer1"
   transform="translate(-50.399408,-28.778516)">
    <path
   style="fill:#3ddc84;stroke:none;stroke-width:1.89;stroke-dasharray:none"
   d="M 153.5,309.62711 C 151.31204,308.84555 54.336096,255.55001 37.004837,245.6043 26.309833,239.46687 25.386355,238.79373 24.721667,236.6508 24.293361,235.26996 23.992116,216.96935 23.620419,169.75 23.071209,99.98004 23.337206,81.139975 24.913823,78.140275 26.486793,75.147515 32.878958,71.397015 90.75,39.511947 152.57577,5.4479483 152.94522,5.2625102 159,5.2545826 l 3.5,-0.00458 12.75,6.9610884 c 10.6771,5.829352 47.70585,26.25099 98.99869,54.598532 12.53122,6.92551 15.42253,9.28923 16.70423,13.65613 0.98305,3.34938 1.27077,16.174669 1.29297,18.601069 0.0455,4.974098 -8.37303,-2.643584 -10.26066,-7.947194 C 281.52136,89.81633 280.89126,88.07665 280.585,87.25367 279.2396,83.6383 274.18398,79.74086 261,72.15536 257.15,69.940235 237.9125,59.286305 218.25,48.479964 161.4649,17.271363 159.24221,16.141846 156.28376,16.990318 154.48634,17.505811 142.86956,23.485012 131.5,29.746615 42.707359,78.64774 38.003647,81.337275 35.607977,84.576735 c -0.851271,1.1511 -1.036193,2.574185 -1.396902,10.75 -0.573962,13.009365 -0.540768,117.434845 0.03985,125.373325 0.751891,10.28018 2.031914,13.10332 6.858077,15.12573 C 42.814589,236.54052 57.536011,244.54931 103,269.49591 155.70839,298.41758 154.9053,298 157.81841,298 c 3.07642,0 8.76503,-3.01129 70.18159,-37.15092 43.59232,-24.23167 50.35845,-28.26406 51.51497,-30.70126 1.21724,-2.56512 1.64173,-12.34194 2.01867,-46.49269 l 0.34874,-31.59486 0.10285,-60.940642 c 0.002,-0.985572 1.16827,-10.119196 4.13569,-9.388344 3.87367,0.954054 6.06057,10.791051 6.12497,17.335538 0.0338,3.437538 0.0901,119.947698 -0.96688,129.989028 -0.65122,6.18682 -1.34197,8.29047 -3.43843,10.47149 -1.27147,1.32275 -7.87005,5.22715 -21.34058,12.6273 -10.725,5.89185 -35.5875,19.6742 -55.25,30.62744 -41.77857,23.27324 -43.76348,24.35127 -47.85095,25.98843 -4.28758,1.71731 -6.86514,1.94035 -9.89905,0.8566 z"
   id="path2"
   transform="matrix(0.26458333,0,0,0.26458333,51.46146,30.030208)"
   sodipodi:nodetypes="ssssssscssssssssssssssssssscsssssssss" />
    
    
    
    
    
    
  </g>
</svg>
